<?xml version="1.0" encoding="UTF-8"?>
<svg id="Layer_1" xmlns="http://www.w3.org/2000/svg" version="1.1" viewBox="0 0 28 28">
  <!-- Generator: Adobe Illustrator 29.4.0, SVG Export Plug-In . SVG Version: 2.1.0 Build 152)  -->
  <g id="Layer_14">
    <g id="Group_182">
      <path id="Path_192" d="M15.89,7.3l-1.11-1.11-1.24,1.24,1.62.61.73-.73Z" style="fill: #dcb7c4;"/>
      <path id="Path_193" d="M12.82,6.15l-1.11-1.12-1.24,1.24,1.62.61.73-.73Z" style="fill: #dcb7c4;"/>
      <path id="Path_194" d="M21.81,13.22l-1.11-1.11-.73.73.61,1.62,1.24-1.24Z" style="fill: #dcb7c4;"/>
      <path id="Path_195" d="M21.12,15.91l.61,1.62,1.24-1.24-1.12-1.11-.73.73Z" style="fill: #dcb7c4;"/>
      <path id="Path_196" d="M15.82,15.15l5.97,7.91,1-1.83-3.52-9.4c-1.18,1.17-2.37,2.3-3.45,3.31ZM16.17,8.73l-9.4-3.52-1.83,1,7.91,5.97c1.01-1.07,2.14-2.26,3.31-3.45Z" style="fill: #dcb7c4;"/>
      <path id="Path_197" d="M22.78,5.22s-.21-.28-.77-.28c-.76,0-2.15.5-4.53,2.89-4.14,4.14-8.27,8.73-8.27,8.73l-2.62.47-1.22,1.64,3.25.7.7,3.25,1.64-1.22.47-2.62s4.59-4.12,8.73-8.27c4.14-4.14,2.61-5.3,2.61-5.3Z" style="fill: #dcb7c4;"/>
    </g>
  </g>
</svg>