<?xml version="1.0" encoding="UTF-8"?>
<svg id="Layer_1" xmlns="http://www.w3.org/2000/svg" version="1.1" viewBox="0 0 28 28">
  <!-- Generator: Adobe Illustrator 29.4.0, SVG Export Plug-In . SVG Version: 2.1.0 Build 152)  -->
  <path id="Icon_Line" d="M24.06,17.25c.21-3.17-.06-3.9-.23-4.05-.09-.11-.16-.22-.22-.35-.02-.03-.04-.06-.07-.08v-.05s0-.05,0-.08c-.03-.08-.05-.14-.06-.15-.22-.73-.89-.86-1.17-1.05l.12-.31c.07,0,.14,0,.2,0,.19,0,.38-.03.57-.08.35-.07.61-.37.61-.73,0-.02,0-.03,0-.05-.13-.55-.62-.93-1.18-.93-.19-.02-.38.04-.52.17-.2.23-.32.51-.34.81,0,.12-.03.25-.06.37-.72-1.58-1.29-2.66-1.29-2.66-.65-1.32-1.45-1.4-1.52-1.4-1.56-.23-3.14-.34-4.71-.33h-.03s-.08-.05-.12-.05h0s-.09.02-.12.05h-.03c-1.58,0-3.15.1-4.72.33-.11,0-.88.11-1.52,1.4,0,0-.59,1.11-1.29,2.67-.02-.11-.04-.23-.06-.36-.02-.3-.14-.59-.34-.82-.14-.13-.33-.19-.52-.17-.09,0-1.05.08-1.18.93,0,.02,0,.03,0,.05,0,.35.25.66.6.73.19.05.38.07.58.08h0c.07,0,.14,0,.2,0l.12.31c-.28.19-.95.32-1.17,1.05,0,0-.02.06-.06.15,0,.03,0,.05,0,.08,0,.02,0,.03,0,.05-.03.02-.06.05-.07.08-.06.12-.13.24-.22.34-.36.23-.44,1.71-.28,4.05-.05.04-.08.11-.08.17v3.56c-.02.39.28.72.67.74h2.2c.39-.02.69-.35.67-.74v-.35c.18,0,.36.02.54.05,1.33.1,3.26.19,5.93.16.03.03.08.05.12.05h0s.09-.02.12-.05h.78c2.63,0,4.47-.1,5.69-.21h0v.35c-.02.39.28.72.67.74h2.2c.39-.02.69-.35.67-.74v-3.58h0c0-.06-.03-.11-.08-.15ZM5.39,18.03c-.2,0-.39-.13-.45-.33-.08-.2-.04-.42.1-.59.13-.15.35-.2.53-.12.19.09.3.29.3.5,0,.14-.05.27-.14.38-.09.1-.21.15-.34.15h0ZM6.61,16.23c-.71-.07-1.23-.71-1.16-1.43.06-.61.54-1.09,1.15-1.16.67.03,1.2.6,1.18,1.27,0,.34-.11.67-.34.93-.21.24-.51.38-.83.39ZM7.3,11.25h-.03s-.07,0-.1,0c0-.02,0-.05,0-.07.37-1.35,1.16-3.55,1.75-3.69,1.68-.27,3.37-.36,5.07-.29h0c1.69-.07,3.39.02,5.07.29.59.14,1.39,2.33,1.75,3.68,0,.02,0,.05,0,.07-.03,0-.07,0-.1,0h-.04c-2.35-.26-6.65-.26-6.69-.26s-4.32,0-6.67.26h0ZM18.37,18h0c-.29.23-3.24.25-4.35.23h0c-1.11,0-4.06,0-4.35-.23h0c0-.08-.03-1.87-.65-2.64.02-.06.18-.36.98-.46,1.33-.19,2.67-.29,4.01-.31,1.35.02,2.7.12,4.04.31.79.1.95.41.98.46-.61.75-.65,2.55-.65,2.63h0ZM20.22,14.92c-.02-.51.27-.98.72-1.21.44-.2.96-.09,1.28.28.34.39.44.93.26,1.41-.16.47-.59.79-1.08.8-.68-.03-1.21-.61-1.17-1.29h0ZM22.61,18.01c-.3.03-.56-.19-.59-.48-.03-.3.19-.56.48-.59.3-.03.56.19.59.48,0,.02,0,.04,0,.06,0,.14-.04.28-.14.39-.09.1-.21.16-.35.16v-.02Z" style="fill: #d7dcb7;"/>
</svg>