<?xml version="1.0" encoding="UTF-8"?>
<svg id="Layer_1" xmlns="http://www.w3.org/2000/svg" version="1.1" viewBox="0 0 28 28">
  <!-- Generator: Adobe Illustrator 29.4.0, SVG Export Plug-In . SVG Version: 2.1.0 Build 152)  -->
  <path d="M12.19,19.09c-.06.57-.11,1.13-.16,1.7-.03.41-.07.82-.08,1.23-.02.33.12.47.41.58.12.05.25.08.37.11.3.06.42.33.37.61,0,.05-.05.1.02.13.07.03.19,0,.23-.06.08-.13.14-.27.19-.41.13-.41.2-.82.26-1.24.04-.28,0-.26.27-.26.85,0,1.71,0,2.56,0,.15,0,.16.01.18.17.05.39.13.77.33,1.11.11.19.25.36.43.5.17.13.36.21.58.2.94,0-.05,0,.89,0,.04,0,.09,0,.13,0,.04,0,.07.03.07.08,0,.04-.03.07-.07.08-.03,0-.05,0-.08,0-4.4,0-5.29,0-9.7,0-.16,0-.32,0-.48,0-.06,0-.14,0-.14-.09,0-.09.08-.08.14-.08.85,0,.11,0,.96,0,.03,0,.06,0,.09,0,.06,0,.09-.03.07-.08-.08-.22,0-.43.01-.65.03-.26.03-.53,0-.79-.03-.36-.07-.73-.11-1.09-.03-.31-.05-.61-.02-.92.02-.34.07-.67.18-.99.12-.34.07-.67,0-1-.02-.1-.06-.2-.05-.31.03-.03.07-.02.1-.02.45,0,.89,0,1.34,0,.09,0,.11.03.1.12-.07.69-.14,1.37-.21,2.06-.06.61-.11,1.21-.17,1.82-.02.17-.04.34-.05.51-.01.18.06.33.21.44.13.08.27.13.42.17.09.03.19.06.28.09.23.09.33.28.28.53,0,.03-.01.06-.02.09.14.05.19.01.2-.12.03-.29-.09-.5-.35-.63-.15-.07-.3-.11-.45-.16-.06-.02-.12-.04-.18-.07-.14-.07-.22-.17-.2-.33.02-.24.05-.47.07-.7.03-.32.06-.64.09-.96.04-.39.08-.79.12-1.18.04-.38.07-.77.11-1.15.01-.11.03-.22.03-.34,0-.08.04-.11.12-.1.1,0,.2,0,.3,0,.08,0,.11.03.1.11-.02.43-.02.87-.07,1.31M15.45,23.3s0-.06.04-.07c.05.04.1.09.15.13.05.04.11.08.21.08-.25-.2-.37-.47-.47-.74-.04.26,0,.54-.2.77.15.01.21-.03.27-.17M16.66,23.26c-.06-.05-.11-.09-.18-.15.06.13.15.22.26.3.07.05.15.09.23,0-.11-.02-.21-.07-.3-.14M14.39,23.14c-.06.1-.12.2-.19.32.13-.05.24-.24.21-.35,0,0-.01.01-.03.03Z" style="fill: #fff;"/>
  <path d="M10.82,10.44c.04.47.08.93.12,1.39.02.23.05.46.11.68.09.32.28.54.59.66.21.08.43.12.64.18.09.02.12.05.11.16-.04.27-.03.55-.03.83,0,.58.05,1.15.08,1.72.03.44.06.88.1,1.32,0,.07-.02.1-.1.1-1.02,0-2.04,0-3.05,0-.15,0-.16-.01-.15-.16.07-.77.12-1.54.17-2.31.02-.39.04-.78.18-1.15.08-.21.18-.42.31-.6.31-.42.46-.9.53-1.42.07-.48.07-.96.08-1.44.02-.57.12-1.11.41-1.62.16-.29.37-.54.61-.78.04-.04.07-.04.11,0,.31.29.67.5,1.03.71.04.03.07.06.08.11.11.43.23.87.31,1.31.03.17.03.34-.03.5-.13.39-.25.78-.38,1.17-.02.05-.02.13-.1.09-.16-.06-.19-.05-.18-.16.03-.49.06-.98.1-1.47.01-.19.05-.38.04-.57,0-.29-.07-.57-.23-.82-.3-.46-.96-.47-1.26,0-.22.34-.27.73-.24,1.13,0,.14.02.29.03.44Z" style="fill: #fff;"/>
  <path d="M10.79,5.59c.04-.27.09-.52.23-.74.17-.26.4-.44.71-.48.2-.03.38.02.53.16.04.04.09.09.12.14.06.08.11.09.19.02.27-.21.57-.33.92-.33.6,0,1.08.26,1.43.74.29.4.39.84.25,1.32-.03.11-.08.22-.15.32-.08-.08-.08-.18-.14-.27-.05.18-.13.34-.21.49-.03.06-.04.12.02.17.05.05.05.1-.02.14-.05.02-.07.06-.1.1-.05.1-.11.19-.17.28-.26.32-.58.41-.97.28-.1-.03-.2-.08-.29-.15-.07-.05-.12-.04-.16.04-.12.19-.21.39-.24.61-.01.08-.04.08-.1.05-.3-.17-.59-.37-.86-.59-.07-.06-.03-.1.01-.14.23-.24.4-.52.49-.84.02-.06,0-.1-.02-.14-.35-.49-.37-1-.12-1.54.02-.03.04-.06.04-.12-.17.06-.27.16-.31.33-.03.15-.04.3-.07.46-.06.35-.17.68-.44.93-.42.38-1.05.41-1.51.14-.02-.01-.04-.02-.05-.05,0-.03.04-.02.06-.02.39,0,.65-.22.79-.57.1-.23.13-.48.15-.74Z" style="fill: #fff;"/>
  <path d="M14.63,12.74c.16-.11.29-.23.39-.39.04-.06.09-.12.17-.07.07.04.08.12.05.19-.02.06-.06.13-.08.19-.04.11,0,.18.11.2.1.02.2.02.29.04.19.03.25.1.23.29-.01.14-.04.28-.06.42-.02.12-.12.16-.23.19-.2.04-.39,0-.58-.03-.88-.16-1.76-.37-2.63-.6-.14-.04-.27-.07-.41-.1-.42-.09-.64-.37-.71-.78-.08-.49-.11-.99-.15-1.48-.02-.33-.06-.65-.07-.98-.01-.27.03-.53.16-.77.13-.23.32-.37.6-.34.27.03.42.21.51.45.1.26.11.53.09.81-.02.24-.04.48-.06.72-.02.39-.04.77-.07,1.16,0,.08.02.13.1.15.7.26,1.41.52,2.11.79.09.03.16.03.23-.04Z" style="fill: #fff;"/>
  <path d="M14.87,21.4c-.33,0-.64,0-.96,0-.1,0-.15-.03-.15-.14,0-.18.04-.34.3-.33.21.01.42,0,.63,0,.19,0,.26-.07.27-.26,0-.12.02-.23.11-.31.04-.04.03-.09.03-.14,0-1.5,0-3,0-4.5,0-.57,0-1.14,0-1.71,0-.04,0-.08.02-.12.12.01.24.03.37,0,.04,0,.04.04.04.07,0,.1,0,.19,0,.29,0,1.62,0,3.25,0,4.87,0,.38,0,.76,0,1.14,0,.04,0,.07.03.09.08.08.1.19.1.3,0,.18.08.26.26.26.23,0,.46,0,.69,0,.16,0,.24.08.25.25,0,.01,0,.03,0,.04,0,.15-.02.17-.17.17-.6,0-1.2,0-1.81,0Z" style="fill: #fff;"/>
  <path d="M15.48,8.63s.07,0,.1,0c.23.03.32.18.27.41-.03.13-.1.24-.2.32-.16.15-.15.34-.14.53,0,.04.02.06.05.07.11.04.15.14.16.24.02.17,0,.35-.03.52-.01.06-.04.12-.1.15-.07.04-.09.1-.09.17,0,.53,0,1.05,0,1.58,0,.03,0,.07,0,.1,0,.05-.03.07-.08.06,0,0-.01,0-.02,0-.2-.04-.19-.04-.12-.23.03-.06.06-.13.05-.2-.02-.12-.08-.17-.26-.2-.02-.65.01-1.31-.02-1.97-.09.02-.09.07-.09.13,0,.27,0,.53,0,.8,0,.06-.01.1-.07.14-.47.3-.95.6-1.43.89-.08.04-.14.05-.22.02-.13-.06-.26-.11-.39-.16-.05-.02-.08-.04-.06-.1.1-.31.21-.62.31-.93.04,0,.06.01.07.03.06.11.13.09.23.04.37-.19.74-.37,1.12-.55.09-.04.15-.1.17-.2.02-.17.11-.29.28-.34.08-.02.1-.08.11-.16.02-.19-.05-.33-.18-.47-.13-.13-.22-.29-.18-.49.02-.12.1-.18.21-.21.17-.03.35,0,.53-.02M15.49,9.1c.05-.03.09-.08.07-.14-.02-.07-.09-.05-.14-.05-.11,0-.21,0-.32,0-.08,0-.11.05-.07.13.03.05.07.08.12.09.11.03.22.03.34-.02Z" style="fill: #fff;"/>
</svg>