<?xml version="1.0" encoding="UTF-8"?>
<svg id="Layer_1" xmlns="http://www.w3.org/2000/svg" version="1.1" viewBox="0 0 28 28">
  <!-- Generator: Adobe Illustrator 29.4.0, SVG Export Plug-In . SVG Version: 2.1.0 Build 152)  -->
  <line x1="15.49" y1="12.66" x2="21.51" y2="12.66" style="fill: none; stroke: #b99f70; stroke-linecap: round; stroke-miterlimit: 10;"/>
  <line x1="15.49" y1="16.66" x2="21.51" y2="16.66" style="fill: none; stroke: #b99f70; stroke-linecap: round; stroke-miterlimit: 10;"/>
  <line x1="15.49" y1="20.66" x2="19.46" y2="20.66" style="fill: none; stroke: #b99f70; stroke-linecap: round; stroke-miterlimit: 10;"/>
  <path d="M11.61,14.77c0,1.16-.94,2.11-2.11,2.11s-2.11-.94-2.11-2.11.94-2.11,2.11-2.11,2.11.94,2.11,2.11ZM10.55,14.77c0-.58-.47-1.05-1.05-1.05s-1.05.47-1.05,1.05.47,1.05,1.05,1.05,1.05-.47,1.05-1.05Z" style="fill: #b99f70;"/>
  <path d="M9.2,17.41c1.56-.14,3.03.89,3.38,2.42.11.47.22,1.34-.52,1.25-.52-.06-.42-.59-.49-.96-.43-2.21-3.7-2.21-4.12,0-.07.35.03.87-.46.95-.78.13-.66-.79-.55-1.27.3-1.28,1.45-2.28,2.77-2.4Z" style="fill: #b99f70;"/>
  <path d="M4.2,8.69c-.99.7-1.64,1.84-1.64,3.14v9c0,2.13,1.73,3.85,3.85,3.85h15.2c2.13,0,3.85-1.73,3.85-3.85v-9c0-2.13-1.73-3.85-3.85-3.85h-6.71" style="fill: none; stroke: #b99f70; stroke-linecap: round; stroke-miterlimit: 10;"/>
  <circle cx="9.45" cy="7.11" r="3.8" style="fill: #fff; stroke: #b99f70; stroke-linecap: round; stroke-miterlimit: 10;"/>
  <path d="M11.19,5.88l-2.39,2.39c-.08.08-.22.08-.31,0l-1.01-1.01" style="fill: none; stroke: #b99f70; stroke-linecap: round; stroke-miterlimit: 10;"/>
</svg>