<?xml version="1.0" encoding="UTF-8"?>
<svg id="Layer_1" xmlns="http://www.w3.org/2000/svg" version="1.1" viewBox="0 0 28 28">
  <!-- Generator: Adobe Illustrator 29.4.0, SVG Export Plug-In . SVG Version: 2.1.0 Build 152)  -->
  <path d="M14.26,6.27c0-.5-.12-.9-.26-.9s-.26.4-.26.9c-3.93.13-7.12,3.16-7.51,7.01.32-.18.73-.29,1.16-.29.71,0,1.33.28,1.65.7.02-.02.04-.04.06-.06.03-.03.06-.07.09-.1.02-.01.03-.03.05-.04.04-.03.07-.06.11-.09.02-.01.04-.03.06-.04.04-.03.08-.05.12-.08.02-.01.05-.02.07-.04.04-.02.08-.04.13-.06.03-.01.06-.02.09-.03.04-.02.08-.03.13-.05.04-.01.08-.02.12-.03.04,0,.08-.02.12-.03.05,0,.1-.02.15-.02.03,0,.06-.01.1-.01.08,0,.17-.01.26-.01.71,0,1.33.28,1.65.7.02-.02.03-.04.05-.06.03-.03.06-.07.09-.1.01-.01.03-.03.05-.04.04-.03.07-.06.11-.09.02-.01.04-.02.05-.03.04-.03.08-.06.13-.08.02-.01.04-.02.07-.03.04-.02.09-.05.14-.07.03-.01.06-.02.09-.03.04-.02.09-.03.13-.05.04-.01.08-.02.11-.03.04-.01.08-.02.12-.03.05,0,.1-.02.15-.02.03,0,.07-.01.1-.02.02,0,.03,0,.05,0v5.91h-.14v2.07c0,.91.74,1.65,1.65,1.65s1.65-.74,1.65-1.65c0-.2-.16-.35-.35-.35s-.35.16-.35.35c0,.52-.42.94-.94.94s-.94-.42-.94-.94v-2.07h-.14v-5.91s.03,0,.05,0c.03,0,.07.01.1.02.05,0,.1.01.15.02.04,0,.08.02.12.03.04,0,.08.02.11.03.05.01.09.03.13.05.03.01.06.02.09.03.05.02.09.04.14.07.02.01.04.02.07.03.05.03.09.05.13.08.02.01.04.02.05.03.04.03.08.06.11.09.01.01.03.02.04.04.03.03.06.07.1.1.02.02.03.04.05.06.32-.42.94-.7,1.65-.7.09,0,.17,0,.26.01.03,0,.06,0,.1.01.05,0,.1.01.15.02.04,0,.08.02.12.03.04,0,.08.02.12.03.04.01.09.03.13.05.03.01.06.02.09.03.05.02.09.04.13.06.02.01.05.02.07.04.04.02.08.05.12.08.02.01.04.02.06.04.04.03.07.06.11.09.02.01.03.03.05.04.03.03.06.07.09.1.02.02.04.04.06.06.32-.42.94-.7,1.65-.7.44,0,.84.11,1.16.29-.39-3.86-3.59-6.88-7.51-7.01Z" style="fill: #fff;"/>
</svg>