<?xml version="1.0" encoding="UTF-8"?>
<svg id="Layer_1" xmlns="http://www.w3.org/2000/svg" version="1.1" viewBox="0 0 28 28">
  <!-- Generator: Adobe Illustrator 29.4.0, SVG Export Plug-In . SVG Version: 2.1.0 Build 152)  -->
  <path d="M4.19,16.32h.33c.2-.42.46-.78.81-1.04.96-.14,16.09-1.42,18.67-1.48-1.85-.38-6.01-.69-7.67-.7-.18,0-.28,0-.44,0-.38-.27-.95-.7-1.21-.86.2.02.35.04.49.06-.27-.2-.57-.41-.83-.56-1.01-.26-1.75-.3-3.21-.28l-.51-.37c.53.02,1.14.06,1.51.11l-.29-.21c-.38-.06-.98-.12-1.54-.14l-.33-.24c.53.03,1.14.09,1.48.14l-.33-.21c-.35-.06-.92-.13-1.45-.16l-.3-.22h-.55l1.32,1.48c-.54,0-1.42.02-2.67.12.15.05.28.1.39.14.46-.02,1.83-.08,2.11-.09-.06.07-.18.2-.18.2-.12,0-2.06.14-2.37.14-.18-.09-.4-.22-.58-.34-.13.01-.27.03-.41.04l.48,1.09h1.71l-.67,1.14c-.56.15-2.26.58-3.05,1-.25.3-.54.79-.7,1.23ZM13.26,13.19c-.3-.28-.77-.69-1.09-.91.76-.08,1.55-.08,2.16-.03.32.2.74.5,1.22.89-.53,0-1.4.02-2.29.06ZM11.01,13.36l-.97-.51c.48-.28,1.2-.45,1.96-.55.31.25.69.6.99.91-.71.04-1.43.09-1.98.16ZM8.33,14.01c.03-.1.06-.23.25-.35.21-.14.78-.49,1.27-.7.27.15.55.33.79.47-.8.14-1.55.35-2.31.58Z" style="fill: #fff;"/>
  <path d="M3.99,16.94c.05-.18.13-.42.13-.42.99-.02,6.44-.41,9.04-.64,4.14-.37,7.77-.73,10.69-1.8-2.38,2.36-5,3.39-6.89,3.77-.53,0-1.04-.02-1.52-.05-3.01-.2-7.68-.79-11.45-.86Z" style="fill: #fff;"/>
  <path d="M4.97,16.01c1.86-.11,5.9-.5,8.13-.68,4.18-.34,7.81-.73,10.75-1.41-2.84.43-9.32,1.01-10.78,1.14-1.46.13-7.33.65-7.74.67-.12.07-.26.17-.36.28Z" style="fill: #fff;"/>
</svg>